<?xml version="1.0" encoding="UTF-8" standalone="no"?> <svg xmlns="http://www.w3.org/2000/svg" viewBox="0 0 510 420"><g id="Layer_2" data-name="Layer 2"><g id="cart"><path d="M60,60H30A30,30,0,0,1,30,0H60a30,30,0,0,1,0,60ZM30,20a10,10,0,0,0,0,20H60a10,10,0,0,0,0-20Z"/><path d="M190,260.27a10,10,0,0,1-9.53-7L112.69,40H80a10,10,0,0,1,0-20h40a10,10,0,0,1,9.53,7l7.32,23H480a30,30,0,0,1,30,30V202.11A29.89,29.89,0,0,1,482.88,232L191,260.22C190.63,260.25,190.31,260.27,190,260.27ZM143.2,70l53.88,169.54L481,212.06a10,10,0,0,0,9-9.95V80a10,10,0,0,0-10-10Z"/><path d="M350,380H270a10,10,0,0,1,0-20h80a10,10,0,0,1,0,20Z"/><path d="M190,380a38.81,38.81,0,0,1-36.81-51.11l27.32-81.79a10,10,0,0,1,8.54-6.79L447.19,216a10,10,0,0,1,10.9,9,50.6,50.6,0,0,1-44.93,54.89l-184,19.34L212.34,344a10,10,0,0,1-18.72-7l19-50.54A10,10,0,0,1,221,280l190.12-20a30.55,30.55,0,0,0,26.35-23l-240,22.58-25.25,75.61A18.82,18.82,0,0,0,190,360a10,10,0,0,1,0,20Z"/><path d="M450,380H430a10,10,0,0,1,0-20h20a10,10,0,0,0,0-20H230a10,10,0,0,1,0-20H450a30,30,0,0,1,0,60Z"/><path d="M390,420a50,50,0,1,1,50-50A50.06,50.06,0,0,1,390,420Zm0-80a30,30,0,1,0,30,30A30,30,0,0,0,390,340Z"/><path d="M390,380a9.85,9.85,0,0,1-1.95-.2,9.39,9.39,0,0,1-1.87-.57,9.87,9.87,0,0,1-1.73-.92,9.72,9.72,0,0,1-2.76-2.76,9.87,9.87,0,0,1-.92-1.73,9.39,9.39,0,0,1-.57-1.87,9.61,9.61,0,0,1,0-3.9,9.39,9.39,0,0,1,.57-1.87,9.25,9.25,0,0,1,.92-1.73,9.72,9.72,0,0,1,2.76-2.76,9.87,9.87,0,0,1,1.73-.92,9.39,9.39,0,0,1,1.87-.57,9.85,9.85,0,0,1,3.9,0,9.39,9.39,0,0,1,1.87.57,9.87,9.87,0,0,1,1.73.92,9.72,9.72,0,0,1,2.76,2.76,9.87,9.87,0,0,1,.92,1.73,10.13,10.13,0,0,1,.58,1.87,10.1,10.1,0,0,1,0,3.9,10.13,10.13,0,0,1-.58,1.87,9.87,9.87,0,0,1-.92,1.73,9.72,9.72,0,0,1-2.76,2.76,9.87,9.87,0,0,1-1.73.92,9.39,9.39,0,0,1-1.87.57A9.85,9.85,0,0,1,390,380Z"/><path d="M230,420a50,50,0,1,1,50-50A50.06,50.06,0,0,1,230,420Zm0-80a30,30,0,1,0,30,30A30,30,0,0,0,230,340Z"/><path d="M230,380a9.85,9.85,0,0,1-1.95-.2,9.39,9.39,0,0,1-1.87-.57,9.87,9.87,0,0,1-1.73-.92,9.72,9.72,0,0,1-2.76-2.76,9.87,9.87,0,0,1-.92-1.73,9.39,9.39,0,0,1-.57-1.87,9.61,9.61,0,0,1,0-3.9,9.39,9.39,0,0,1,.57-1.87,9.87,9.87,0,0,1,.92-1.73,9.72,9.72,0,0,1,2.76-2.76,9.87,9.87,0,0,1,1.73-.92,9.39,9.39,0,0,1,1.87-.57,9.85,9.85,0,0,1,3.9,0,9.39,9.39,0,0,1,1.87.57,9.87,9.87,0,0,1,1.73.92,9.72,9.72,0,0,1,2.76,2.76,9.87,9.87,0,0,1,.92,1.73,9.39,9.39,0,0,1,.57,1.87,9.61,9.61,0,0,1,0,3.9,9.39,9.39,0,0,1-.57,1.87,9.87,9.87,0,0,1-.92,1.73,9.72,9.72,0,0,1-2.76,2.76,9.87,9.87,0,0,1-1.73.92,9.39,9.39,0,0,1-1.87.57A9.85,9.85,0,0,1,230,380Z"/><path d="M456.54,234.47a10,10,0,0,1-9.76-7.88L411.13,62.12a10,10,0,1,1,19.54-4.24l35.65,164.47a10,10,0,0,1-7.65,11.89A9.78,9.78,0,0,1,456.54,234.47Z"/><path d="M399.47,240a10,10,0,0,1-9.76-7.88l-36.92-170a10,10,0,1,1,19.54-4.24l36.92,170a10,10,0,0,1-7.65,11.89A9.71,9.71,0,0,1,399.47,240Z"/><path d="M342.42,245.52a10,10,0,0,1-9.76-7.87L294.46,62.13A10,10,0,0,1,314,57.87l38.2,175.52a10,10,0,0,1-7.64,11.9A9.87,9.87,0,0,1,342.42,245.52Z"/><path d="M285.36,251a10,10,0,0,1-9.76-7.87l-39.47-181a10,10,0,1,1,19.54-4.26l39.47,181a10,10,0,0,1-7.64,11.9A9.8,9.8,0,0,1,285.36,251Z"/><path d="M228.3,256.56a10,10,0,0,1-9.76-7.87L177.79,62.13a10,10,0,1,1,19.54-4.26l40.75,186.56a10,10,0,0,1-7.64,11.9A9.74,9.74,0,0,1,228.3,256.56Z"/></g></g></svg>